<svg width="500" height="500" viewBox="65 65 500 500" fill="none" xmlns="http://www.w3.org/2000/svg">
<rect x="65" y="65" width="500" height="500" fill="#3B5BA5"/>
<g filter="url(#filter0_f_1_12)">
<circle cx="315" cy="315" r="215" fill="#84ACD2"/>
<circle cx="315" cy="315" r="214.5" stroke="black"/>
</g>
<g filter="url(#filter1_d_1_12)">
<path d="M447.669 412.522C447.703 415.69 446.885 419.832 446.035 423.247C440.09 447.259 413.694 474.204 376.54 471.752C342.867 469.536 315.44 453.371 315.44 430.702C315.44 408.033 342.8 389.652 376.54 389.652C410.28 389.652 447.456 389.853 447.669 412.522Z" fill="#EA596E"/>
<path d="M376.54 393.458C358.416 393.458 317.052 398.473 307.559 398.473C290.79 398.473 277.189 408.996 277.189 421.982C277.189 428.228 280.391 433.87 285.518 438.079C285.518 438.079 296.779 449.374 317.064 443.956C325.941 441.583 340.382 423.963 365.804 421.164C378.465 419.765 402.186 429.56 443.874 429.795C445.665 425.944 446.035 423.269 446.035 423.269C446.035 400.578 410.28 393.458 376.54 393.458Z" fill="#DD2E44"/>
<path d="M446.035 423.247C446.035 423.247 470.483 418.287 485.685 398.294C503.406 374.976 501.078 350.024 501.078 350.024C519.034 316.44 495.481 284.95 495.481 284.95C493.141 249.498 471.222 234.81 471.222 234.81C456.994 200.992 425.515 191.902 425.515 191.902C400.798 162.987 356.949 163.916 356.949 163.916C356.949 163.916 315.866 148.86 259.468 165.786C250.143 168.584 218.888 175.11 196.029 189.104C123.982 233.21 118.53 301.988 119.538 313.172C125.124 375.67 168.972 386.865 196.958 393.391C203.485 411.112 227.508 443.766 270.651 431.642C323.825 422.317 346.214 406.455 359.278 406.455C372.342 406.455 408.724 420.448 446.035 423.247Z" fill="#F4ABBA"/>
<path d="M311.556 322.754C337.617 308.705 351.744 310.015 364.215 311.145C368.177 311.504 371.928 311.783 375.722 311.761C397.932 311.257 415.922 301.899 423.881 292.842C425.918 290.514 425.683 286.988 423.366 284.939C421.06 282.902 417.534 283.114 415.463 285.443C409.328 292.428 394.204 300.141 375.465 300.567C372.107 300.667 368.737 300.332 365.244 300.007C351.867 298.764 335.254 297.242 306.238 312.903C298.794 316.922 288.585 318.411 277.525 319.53C252.931 284.032 267.73 253.113 271.961 245.747C272.375 245.77 272.778 245.904 273.204 245.904C277.681 245.904 282.182 244.807 286.256 242.501C288.943 240.979 289.895 237.564 288.372 234.878C286.85 232.191 283.435 231.239 280.749 232.762C273.584 236.814 264.159 234.475 259.703 227.534C258.035 224.926 254.576 224.165 251.979 225.844C249.382 227.512 248.621 230.971 250.289 233.568C252.942 237.721 256.681 240.844 260.901 242.938C255.069 254.781 243.997 285.924 265.065 320.75C250.244 322.205 235.4 324.299 223.78 331.788C216.28 336.624 208.612 343.699 202.757 351.837C195.716 350.628 169.935 344.281 165.435 315.668C168.233 313.496 170.495 310.63 171.894 307.093C173.036 304.216 171.625 300.97 168.748 299.828C165.871 298.686 162.625 300.096 161.483 302.973C160.487 305.492 158.685 307.328 156.401 308.134C154.14 308.94 151.576 308.671 149.203 307.35C146.483 305.839 143.091 306.836 141.591 309.522C140.091 312.22 141.064 315.634 143.762 317.134C146.942 318.903 150.345 319.799 153.725 319.799C154.14 319.799 154.531 319.608 154.946 319.586C160.274 346.598 181.622 358.464 196.723 362.058C194.753 366.401 193.421 370.879 193.018 375.401C192.749 378.469 195.022 381.2 198.1 381.469L198.604 381.491C201.47 381.491 203.921 379.308 204.179 376.387C205.388 362.808 218.34 348.624 229.848 341.18C240.639 334.228 256.434 332.762 271.726 331.34C286.559 329.986 300.574 328.687 311.556 322.754ZM455.584 305.918C454.117 308.627 455.125 312.03 457.822 313.496C458.673 313.966 459.602 314.19 460.509 314.19C462.479 314.19 464.394 313.149 465.412 311.291C465.625 310.91 486.032 272.681 447.826 246.99C445.274 245.288 441.792 245.949 440.057 248.512C438.333 251.076 439.016 254.557 441.579 256.281C471.177 276.185 456.233 304.709 455.584 305.918ZM223.556 215.534C225.303 215.534 227.015 214.728 228.101 213.205C244.333 190.626 266.812 198.35 267.763 198.708C270.663 199.761 273.853 198.283 274.928 195.395C276.002 192.495 274.525 189.283 271.625 188.208C260.879 184.223 236.061 182.969 219.011 206.679C217.209 209.175 217.78 212.679 220.288 214.481C221.284 215.198 222.426 215.534 223.556 215.534ZM369.89 194.399C394.798 192.372 406.127 210.429 406.641 211.28C407.694 213.048 409.552 214.034 411.466 214.034C412.429 214.034 413.414 213.787 414.298 213.261C416.963 211.694 417.858 208.268 416.302 205.604C415.698 204.585 401.302 180.775 369.017 183.238C365.938 183.473 363.644 186.171 363.879 189.26C364.125 192.339 366.912 194.678 369.89 194.399ZM472.319 357.961C469.565 357.804 466.532 359.987 466.285 363.076C466.263 363.278 464.483 382.32 444.904 388.756C441.971 389.719 440.37 392.876 441.344 395.82C442.105 398.171 444.311 399.671 446.662 399.671C447.244 399.671 447.826 399.581 448.408 399.391C474.961 390.682 477.357 365.091 477.446 364.006C477.681 360.916 475.398 358.207 472.319 357.961Z" fill="#EA596E"/>
<path d="M195.246 303.567C194.44 306.556 196.208 309.623 199.197 310.429C199.679 310.563 200.171 310.619 200.653 310.619C203.126 310.619 205.377 308.974 206.048 306.477C208.175 298.518 216.425 293.413 224.541 295.126C227.575 295.742 230.53 293.828 231.169 290.794C231.807 287.771 229.87 284.805 226.836 284.167C222.067 283.159 217.276 283.629 212.866 285.129C199.813 262.808 202.354 240.799 202.388 240.564C202.791 237.508 200.641 234.699 197.585 234.273C194.54 233.904 191.719 235.997 191.294 239.053C191.148 240.139 188.16 264.979 203.194 290.704C199.455 294.074 196.611 298.473 195.246 303.567ZM320.388 275.916C324.944 271.696 332.254 271.775 336.676 276.084C337.773 277.137 339.173 277.663 340.583 277.663C342.05 277.663 343.505 277.092 344.591 275.961C346.74 273.745 346.695 270.196 344.479 268.047C341.904 265.55 338.826 263.882 335.557 262.841C338.87 251.468 337.561 246.419 334.482 236.96C333.945 235.314 333.351 233.478 332.725 231.385L332.389 230.265C328.314 216.743 325.616 207.821 333.363 195.227C334.986 192.596 334.157 189.148 331.527 187.525C328.941 185.913 325.459 186.708 323.825 189.361C313.437 206.242 317.254 218.881 321.676 233.512L322.011 234.631C322.672 236.803 323.276 238.706 323.836 240.419C326.601 248.938 327.441 251.792 324.06 262.091C319.929 262.864 315.978 264.733 312.754 267.733C310.492 269.838 310.369 273.386 312.474 275.648C314.59 277.909 318.138 278.021 320.388 275.916ZM391.641 242.501C394.899 242.501 398.19 241.818 401.257 240.363C404.056 239.042 405.253 235.706 403.932 232.907C402.623 230.109 399.242 228.945 396.488 230.232C390.869 232.874 383.939 230.579 380.995 225.116C379.529 222.385 376.114 221.388 373.416 222.821C370.696 224.276 369.666 227.68 371.133 230.4C373.148 234.161 376.148 237.128 379.64 239.187C373.629 253.796 377.043 269.312 379.831 277.54C380.614 279.879 382.797 281.346 385.137 281.346C385.73 281.346 386.324 281.256 386.928 281.055C389.861 280.07 391.428 276.89 390.432 273.969C388.551 268.394 384.902 254.311 390.41 242.333C390.835 242.355 391.227 242.501 391.641 242.501ZM445.341 348.053C445.128 344.975 442.464 342.546 439.396 342.826C428.045 343.632 418.373 335.023 417.601 323.762C417.377 320.683 414.634 318.388 411.634 318.556C408.556 318.769 406.227 321.444 406.429 324.523C406.888 331.127 409.407 337.083 413.235 341.93C404.235 352.52 392.447 355.531 385.876 356.304C380.066 356.998 374.984 356.404 369.107 355.71C363.722 355.095 357.632 354.389 350.098 354.613L350.042 354.625C349.818 351.423 349.057 346.755 346.628 342.87C344.994 340.262 341.535 339.467 338.915 341.102C336.307 342.736 335.501 346.195 337.146 348.815C338.646 351.221 338.926 355.061 338.926 356.931C333.284 358.957 328.404 361.935 323.993 364.812C316.112 369.939 309.899 373.991 300.552 371.886C292.089 369.95 283.615 369.558 276.428 370.565C275.308 367.756 273.54 364.397 270.808 361.811C268.558 359.684 265.021 359.774 262.894 362.035C260.778 364.274 260.867 367.823 263.118 369.95C264.08 370.857 264.841 372.177 265.457 373.498C253.11 378.581 246.919 387.077 246.628 387.491C244.837 389.999 245.43 393.458 247.915 395.26C248.901 395.966 250.042 396.313 251.184 396.313C252.919 396.313 254.632 395.518 255.729 394.018C255.785 393.928 261.931 385.7 274.054 382.376C280.323 380.652 289.313 380.797 298.078 382.79C300.529 383.35 302.802 383.54 305.007 383.573C306.048 386.014 306.451 388.913 306.507 389.988C306.686 392.966 309.149 395.272 312.093 395.272L312.395 395.26C315.474 395.092 317.836 392.484 317.69 389.406C317.657 388.846 317.433 385.532 316.235 381.726C321.396 379.857 325.885 376.935 330.105 374.192C336.508 370.017 342.564 366.065 350.479 365.808C357.106 365.573 362.569 366.211 367.842 366.827C373.148 367.442 378.364 367.845 384.118 367.509C385.137 370.342 385.059 374.125 384.902 375.39C384.532 378.446 386.693 381.245 389.76 381.648C389.995 381.682 390.23 381.693 390.466 381.693C393.231 381.693 395.637 379.644 396.007 376.823C396.096 376.129 396.667 371.092 395.346 365.841C403.384 363.681 413.347 358.99 421.597 349.374C426.422 352.33 432.053 354.065 438.042 354.065C438.736 354.065 439.441 354.042 440.135 353.998C443.214 353.796 445.542 351.143 445.341 348.053Z" fill="#EA596E"/>
</g>
<defs>
<filter id="filter0_f_1_12" x="0" y="0" width="630" height="630" filterUnits="userSpaceOnUse" color-interpolation-filters="sRGB">
<feFlood flood-opacity="0" result="BackgroundImageFix"/>
<feBlend mode="normal" in="SourceGraphic" in2="BackgroundImageFix" result="shape"/>
<feGaussianBlur stdDeviation="50" result="effect1_foregroundBlur_1_12"/>
</filter>
<filter id="filter1_d_1_12" x="103" y="104" width="423" height="423" filterUnits="userSpaceOnUse" color-interpolation-filters="sRGB">
<feFlood flood-opacity="0" result="BackgroundImageFix"/>
<feColorMatrix in="SourceAlpha" type="matrix" values="0 0 0 0 0 0 0 0 0 0 0 0 0 0 0 0 0 0 127 0" result="hardAlpha"/>
<feOffset/>
<feGaussianBlur stdDeviation="5"/>
<feColorMatrix type="matrix" values="0 0 0 0 0 0 0 0 0 0 0 0 0 0 0 0 0 0 0.25 0"/>
<feBlend mode="normal" in2="BackgroundImageFix" result="effect1_dropShadow_1_12"/>
<feBlend mode="normal" in="SourceGraphic" in2="effect1_dropShadow_1_12" result="shape"/>
</filter>
</defs>
</svg>
